<svg xmlns="http://www.w3.org/2000/svg" width="1200" height="1200" viewBox="0 0 1200 1200" version="1.1">


	<path d="M 561.500 46.102 C 484.689 51.334, 407.470 73.605, 337.883 110.597 C 213.317 176.815, 118.118 289.477, 73.623 423.329 C 57.009 473.307, 48.510 519.593, 45.815 574.760 C 41.290 667.397, 60.283 759.990, 100.938 843.500 C 139.289 922.278, 196.466 991.509, 266.500 1043.967 C 340.519 1099.410, 427.632 1135.768, 518 1148.935 C 549.700 1153.553, 563.101 1154.444, 600.500 1154.415 C 637.872 1154.386, 650.723 1153.524, 682.498 1148.913 C 774.118 1135.619, 864.821 1097.147, 938.996 1040.118 C 981.598 1007.364, 1021.999 965.502, 1052.508 922.500 C 1120.244 827.029, 1154.898 718.135, 1154.985 600.483 C 1155.084 465.840, 1109.386 341.281, 1022.182 238.500 C 1010.049 224.199, 972.685 187.234, 958.055 175.058 C 874.849 105.805, 776.059 62.742, 669 49.057 C 638.804 45.198, 593.187 43.944, 561.500 46.102 M 627.327 78.337 C 600.282 83.914, 578.518 88.707, 578.962 88.989 C 579.407 89.270, 576.424 113.740, 572.334 143.366 C 568.245 172.992, 565.034 197.326, 565.199 197.441 C 565.365 197.556, 604.633 222.305, 652.462 252.439 L 739.423 307.227 749.462 307.117 C 773.224 306.856, 930.615 302.842, 931.759 302.468 C 932.754 302.142, 932.963 290.999, 932.759 249.290 L 932.500 196.523 889.500 160.803 C 865.850 141.156, 844.151 122.957, 841.281 120.360 C 835.678 115.291, 829.955 112.361, 806.500 102.555 C 788.153 94.885, 772.963 89.517, 752.832 83.589 C 727.034 75.992, 689.207 67.887, 680.535 68.098 C 678.316 68.152, 654.372 72.760, 627.327 78.337 M 489.500 72.979 C 397.858 92.747, 316.319 133.085, 247 192.945 C 236.229 202.246, 206.935 230.957, 200.519 238.500 L 196.267 243.500 193.702 276.985 C 192.291 295.402, 191.315 310.648, 191.533 310.866 C 191.751 311.084, 228.272 310.480, 272.690 309.524 L 353.451 307.785 449.975 250.280 C 503.064 218.653, 546.566 192.714, 546.646 192.638 C 547.058 192.250, 561.208 87.889, 560.882 87.644 C 560.014 86.992, 504.419 69.956, 503.500 70.061 C 502.950 70.123, 496.650 71.437, 489.500 72.979 M 878 139.189 C 878.825 140.013, 891.200 150.361, 905.500 162.185 C 930.951 183.229, 958.040 203.980, 975 215.426 L 983.500 221.162 973 211.004 C 960.830 199.231, 944.870 185.471, 929.389 173.403 C 914.857 162.075, 873.030 134.227, 878 139.189 M 837.500 323.553 C 789.650 324.813, 747.871 325.991, 744.657 326.172 L 738.813 326.500 699.484 426.800 L 660.155 527.100 722.605 623.947 L 785.054 720.794 803.277 720.377 C 823.227 719.920, 951.760 717.986, 961.642 717.995 L 967.783 718 1010.547 618.250 C 1034.068 563.388, 1053.308 518.050, 1053.304 517.500 C 1053.300 516.950, 1026.826 472.513, 994.473 418.750 L 935.651 321 930.075 321.132 C 927.009 321.204, 885.350 322.294, 837.500 323.553 M 267.133 328.116 C 223.481 329.061, 187.375 330.225, 186.897 330.703 C 184.858 332.742, 84.974 512.354, 83.917 515.882 C 82.780 519.677, 83.565 521.933, 117.056 611.135 C 135.923 661.386, 151.531 702.715, 151.741 702.978 C 152.132 703.468, 304.216 715.179, 304.514 714.742 C 306.753 711.460, 413.442 524.027, 413.756 522.824 C 414.239 520.979, 349.406 329.784, 347.574 327.649 C 346.715 326.648, 330.632 326.741, 267.133 328.116 M 1098.143 519.858 L 1071.786 522.500 1026.411 628.251 L 981.037 734.001 990.057 810.206 C 995.018 852.119, 999.173 886.499, 999.289 886.606 C 999.405 886.714, 1009.175 889.118, 1021 891.950 C 1032.825 894.781, 1043.271 897.326, 1044.214 897.605 C 1045.538 897.997, 1045.798 898.838, 1045.358 901.306 C 1044.818 904.333, 1044.972 904.236, 1048.297 899.433 C 1050.227 896.646, 1054.705 889.671, 1058.248 883.933 C 1097.028 821.126, 1122.927 749.753, 1133.075 677.717 C 1139.565 631.649, 1139.819 571.676, 1133.716 526.500 L 1132.500 517.500 1128.500 517.358 C 1126.300 517.280, 1112.639 518.405, 1098.143 519.858 M 65.999 531 C 65.964 531.825, 65.274 538.350, 64.465 545.500 C 62.332 564.347, 61.486 611.775, 62.891 633.756 C 68.588 722.866, 93.193 802.220, 138.662 878.126 L 148.022 893.752 156.761 891.007 C 165.271 888.334, 165.492 888.186, 165.183 885.381 C 164.048 875.068, 138.804 720.177, 138.041 718.838 C 137.519 717.923, 121.502 675.623, 102.447 624.838 C 83.392 574.052, 67.410 531.825, 66.931 531 C 66.158 529.667, 66.054 529.667, 65.999 531 M 429.622 533.250 C 428.839 534.487, 403.154 579.360, 372.544 632.968 C 331.792 704.335, 317.104 730.879, 317.694 732.093 C 318.137 733.004, 341.879 774.756, 370.454 824.875 L 422.408 916 482.954 915.999 C 516.254 915.999, 569.471 915.700, 601.213 915.336 L 658.926 914.673 714.211 824.587 C 744.618 775.039, 769.478 733.600, 769.454 732.500 C 769.416 730.751, 648.826 542.565, 645.594 539.213 C 644.642 538.224, 620.114 537.125, 539.927 534.478 C 482.492 532.582, 434.498 531.023, 433.273 531.015 C 432.040 531.007, 430.410 532.004, 429.622 533.250 M 889.605 977.989 L 788.710 1051.800 751.894 1088.606 C 731.645 1108.849, 715.243 1125.577, 715.445 1125.778 C 716.049 1126.382, 736.439 1121.256, 753 1116.338 C 863.853 1083.415, 960.926 1016.491, 1029.681 925.589 C 1035.179 918.321, 1036.821 915.487, 1035.839 914.960 C 1034.378 914.176, 992.375 903.944, 991.213 904.089 C 990.821 904.138, 945.097 937.393, 889.605 977.989 M 166.250 907.266 C 162.813 908.432, 160 909.822, 160 910.355 C 160 910.889, 163.794 916.376, 168.430 922.549 C 230.843 1005.642, 316.247 1069.356, 412.871 1104.909 C 419.124 1107.210, 424.426 1108.907, 424.652 1108.681 C 425.485 1107.849, 339.984 1036.500, 338.154 1036.500 C 337.111 1036.500, 300.195 1007.025, 256.119 971 C 212.043 934.975, 175.197 905.421, 174.240 905.324 C 173.283 905.227, 169.688 906.101, 166.250 907.266 M 462.422 934.982 L 424.344 935.500 387.712 978.490 C 367.564 1002.134, 351.399 1021.764, 351.790 1022.111 C 352.180 1022.458, 377.475 1043.792, 408 1069.519 C 438.525 1095.247, 463.908 1116.661, 464.408 1117.106 C 464.943 1117.583, 464.824 1118.507, 464.118 1119.357 C 463.104 1120.580, 464.867 1121.266, 475.711 1123.866 C 502.162 1130.208, 527.682 1134.219, 559.592 1137.050 C 577.834 1138.669, 639.144 1137.771, 657 1135.624 C 682.686 1132.535, 685.910 1131.930, 685.291 1130.317 C 684.910 1129.322, 699.754 1113.994, 730.950 1083.172 L 777.175 1037.500 718.435 985.750 L 659.695 934 580.097 934.232 C 536.319 934.360, 483.365 934.697, 462.422 934.982" stroke="none" fill="#090909" fill-rule="evenodd"/>

<path d="M 0 600.001 L 0 1200.002 600.250 1199.751 L 1200.500 1199.500 1200.751 599.750 L 1201.002 0 600.501 0 L 0 0 0 600.001 M 0.497 600.500 C 0.497 930.500, 0.611 1065.649, 0.750 900.832 C 0.889 736.015, 0.889 466.015, 0.750 300.832 C 0.611 135.649, 0.497 270.500, 0.497 600.500 M 561.500 46.102 C 484.689 51.334, 407.470 73.605, 337.883 110.597 C 213.317 176.815, 118.118 289.477, 73.623 423.329 C 57.009 473.307, 48.510 519.593, 45.815 574.760 C 41.290 667.397, 60.283 759.990, 100.938 843.500 C 139.289 922.278, 196.466 991.509, 266.500 1043.967 C 340.519 1099.410, 427.632 1135.768, 518 1148.935 C 549.700 1153.553, 563.101 1154.444, 600.500 1154.415 C 637.872 1154.386, 650.723 1153.524, 682.498 1148.913 C 774.118 1135.619, 864.821 1097.147, 938.996 1040.118 C 981.598 1007.364, 1021.999 965.502, 1052.508 922.500 C 1120.244 827.029, 1154.898 718.135, 1154.985 600.483 C 1155.084 465.840, 1109.386 341.281, 1022.182 238.500 C 1010.049 224.199, 972.685 187.234, 958.055 175.058 C 874.849 105.805, 776.059 62.742, 669 49.057 C 638.804 45.198, 593.187 43.944, 561.500 46.102 M 627.327 78.337 C 600.282 83.914, 578.518 88.707, 578.962 88.989 C 579.407 89.270, 576.424 113.740, 572.334 143.366 C 568.245 172.992, 565.034 197.326, 565.199 197.441 C 565.365 197.556, 604.633 222.305, 652.462 252.439 L 739.423 307.227 749.462 307.117 C 773.224 306.856, 930.615 302.842, 931.759 302.468 C 932.754 302.142, 932.963 290.999, 932.759 249.290 L 932.500 196.523 889.500 160.803 C 865.850 141.156, 844.151 122.957, 841.281 120.360 C 835.678 115.291, 829.955 112.361, 806.500 102.555 C 788.153 94.885, 772.963 89.517, 752.832 83.589 C 727.034 75.992, 689.207 67.887, 680.535 68.098 C 678.316 68.152, 654.372 72.760, 627.327 78.337 M 489.500 72.979 C 397.858 92.747, 316.319 133.085, 247 192.945 C 236.229 202.246, 206.935 230.957, 200.519 238.500 L 196.267 243.500 193.702 276.985 C 192.291 295.402, 191.315 310.648, 191.533 310.866 C 191.751 311.084, 228.272 310.480, 272.690 309.524 L 353.451 307.785 449.975 250.280 C 503.064 218.653, 546.566 192.714, 546.646 192.638 C 547.058 192.250, 561.208 87.889, 560.882 87.644 C 560.014 86.992, 504.419 69.956, 503.500 70.061 C 502.950 70.123, 496.650 71.437, 489.500 72.979 M 878 139.189 C 878.825 140.013, 891.200 150.361, 905.500 162.185 C 930.951 183.229, 958.040 203.980, 975 215.426 L 983.500 221.162 973 211.004 C 960.830 199.231, 944.870 185.471, 929.389 173.403 C 914.857 162.075, 873.030 134.227, 878 139.189 M 837.500 323.553 C 789.650 324.813, 747.871 325.991, 744.657 326.172 L 738.813 326.500 699.484 426.800 L 660.155 527.100 722.605 623.947 L 785.054 720.794 803.277 720.377 C 823.227 719.920, 951.760 717.986, 961.642 717.995 L 967.783 718 1010.547 618.250 C 1034.068 563.388, 1053.308 518.050, 1053.304 517.500 C 1053.300 516.950, 1026.826 472.513, 994.473 418.750 L 935.651 321 930.075 321.132 C 927.009 321.204, 885.350 322.294, 837.500 323.553 M 267.133 328.116 C 223.481 329.061, 187.375 330.225, 186.897 330.703 C 184.858 332.742, 84.974 512.354, 83.917 515.882 C 82.780 519.677, 83.565 521.933, 117.056 611.135 C 135.923 661.386, 151.531 702.715, 151.741 702.978 C 152.132 703.468, 304.216 715.179, 304.514 714.742 C 306.753 711.460, 413.442 524.027, 413.756 522.824 C 414.239 520.979, 349.406 329.784, 347.574 327.649 C 346.715 326.648, 330.632 326.741, 267.133 328.116 M 1098.143 519.858 L 1071.786 522.500 1026.411 628.251 L 981.037 734.001 990.057 810.206 C 995.018 852.119, 999.173 886.499, 999.289 886.606 C 999.405 886.714, 1009.175 889.118, 1021 891.950 C 1032.825 894.781, 1043.271 897.326, 1044.214 897.605 C 1045.538 897.997, 1045.798 898.838, 1045.358 901.306 C 1044.818 904.333, 1044.972 904.236, 1048.297 899.433 C 1050.227 896.646, 1054.705 889.671, 1058.248 883.933 C 1097.028 821.126, 1122.927 749.753, 1133.075 677.717 C 1139.565 631.649, 1139.819 571.676, 1133.716 526.500 L 1132.500 517.500 1128.500 517.358 C 1126.300 517.280, 1112.639 518.405, 1098.143 519.858 M 65.999 531 C 65.964 531.825, 65.274 538.350, 64.465 545.500 C 62.332 564.347, 61.486 611.775, 62.891 633.756 C 68.588 722.866, 93.193 802.220, 138.662 878.126 L 148.022 893.752 156.761 891.007 C 165.271 888.334, 165.492 888.186, 165.183 885.381 C 164.048 875.068, 138.804 720.177, 138.041 718.838 C 137.519 717.923, 121.502 675.623, 102.447 624.838 C 83.392 574.052, 67.410 531.825, 66.931 531 C 66.158 529.667, 66.054 529.667, 65.999 531 M 429.622 533.250 C 428.839 534.487, 403.154 579.360, 372.544 632.968 C 331.792 704.335, 317.104 730.879, 317.694 732.093 C 318.137 733.004, 341.879 774.756, 370.454 824.875 L 422.408 916 482.954 915.999 C 516.254 915.999, 569.471 915.700, 601.213 915.336 L 658.926 914.673 714.211 824.587 C 744.618 775.039, 769.478 733.600, 769.454 732.500 C 769.416 730.751, 648.826 542.565, 645.594 539.213 C 644.642 538.224, 620.114 537.125, 539.927 534.478 C 482.492 532.582, 434.498 531.023, 433.273 531.015 C 432.040 531.007, 430.410 532.004, 429.622 533.250 M 889.605 977.989 L 788.710 1051.800 751.894 1088.606 C 731.645 1108.849, 715.243 1125.577, 715.445 1125.778 C 716.049 1126.382, 736.439 1121.256, 753 1116.338 C 863.853 1083.415, 960.926 1016.491, 1029.681 925.589 C 1035.179 918.321, 1036.821 915.487, 1035.839 914.960 C 1034.378 914.176, 992.375 903.944, 991.213 904.089 C 990.821 904.138, 945.097 937.393, 889.605 977.989 M 166.250 907.266 C 162.813 908.432, 160 909.822, 160 910.355 C 160 910.889, 163.794 916.376, 168.430 922.549 C 230.843 1005.642, 316.247 1069.356, 412.871 1104.909 C 419.124 1107.210, 424.426 1108.907, 424.652 1108.681 C 425.485 1107.849, 339.984 1036.500, 338.154 1036.500 C 337.111 1036.500, 300.195 1007.025, 256.119 971 C 212.043 934.975, 175.197 905.421, 174.240 905.324 C 173.283 905.227, 169.688 906.101, 166.250 907.266 M 462.422 934.982 L 424.344 935.500 387.712 978.490 C 367.564 1002.134, 351.399 1021.764, 351.790 1022.111 C 352.180 1022.458, 377.475 1043.792, 408 1069.519 C 438.525 1095.247, 463.908 1116.661, 464.408 1117.106 C 464.943 1117.583, 464.824 1118.507, 464.118 1119.357 C 463.104 1120.580, 464.867 1121.266, 475.711 1123.866 C 502.162 1130.208, 527.682 1134.219, 559.592 1137.050 C 577.834 1138.669, 639.144 1137.771, 657 1135.624 C 682.686 1132.535, 685.910 1131.930, 685.291 1130.317 C 684.910 1129.322, 699.754 1113.994, 730.950 1083.172 L 777.175 1037.500 718.435 985.750 L 659.695 934 580.097 934.232 C 536.319 934.360, 483.365 934.697, 462.422 934.982" stroke="none" fill="pink" fill-rule="evenodd"/></svg>